<svg width="84" height="60" viewBox="0 0 84 60" fill="none" xmlns="http://www.w3.org/2000/svg">
<path d="M17.5 52.5C15.575 52.5 13.9265 52.0108 12.5545 51.0325C11.1848 50.0525 10.5 48.875 10.5 47.5V22.5C10.5 21.125 11.1848 19.9475 12.5545 18.9675C13.9265 17.9892 15.575 17.5 17.5 17.5H31.5V14.5625C31.5 14.2292 31.5443 13.9067 31.633 13.595C31.7193 13.2817 31.85 12.9792 32.025 12.6875C32.2 12.3958 32.4042 12.1142 32.6375 11.8425C32.8708 11.5725 33.1625 11.3125 33.5125 11.0625L39.55 6.75C40.25 6.25 41.0667 6 42 6C42.9333 6 43.75 6.25 44.45 6.75L50.4875 11.0625C51.1292 11.5208 51.625 12.0517 51.975 12.655C52.325 13.26 52.5 13.8958 52.5 14.5625V27.5H66.5C68.425 27.5 70.0735 27.9892 71.4455 28.9675C72.8152 29.9475 73.5 31.125 73.5 32.5V47.5C73.5 48.875 72.8152 50.0525 71.4455 51.0325C70.0735 52.0108 68.425 52.5 66.5 52.5H17.5ZM17.5 47.5H24.5V42.5H17.5V47.5ZM17.5 37.5H24.5V32.5H17.5V37.5ZM17.5 27.5H24.5V22.5H17.5V27.5ZM38.5 47.5H45.5V42.5H38.5V47.5ZM38.5 37.5H45.5V32.5H38.5V37.5ZM38.5 27.5H45.5V22.5H38.5V27.5ZM38.5 17.5H45.5V12.5H38.5V17.5ZM59.5 47.5H66.5V42.5H59.5V47.5ZM59.5 37.5H66.5V32.5H59.5V37.5Z" fill="black"/>
</svg>
