<svg width="77" height="67" viewBox="0 0 77 67" fill="none" xmlns="http://www.w3.org/2000/svg">
<path d="M0 67V17.6316H25.6667V10.5789L38.5 0L51.3333 10.5789V31.7368H77V67H0ZM8.55556 59.9474H17.1111V52.8947H8.55556V59.9474ZM8.55556 45.8421H17.1111V38.7895H8.55556V45.8421ZM8.55556 31.7368H17.1111V24.6842H8.55556V31.7368ZM34.2222 59.9474H42.7778V52.8947H34.2222V59.9474ZM34.2222 45.8421H42.7778V38.7895H34.2222V45.8421ZM34.2222 31.7368H42.7778V24.6842H34.2222V31.7368ZM34.2222 17.6316H42.7778V10.5789H34.2222V17.6316ZM59.8889 59.9474H68.4444V52.8947H59.8889V59.9474ZM59.8889 45.8421H68.4444V38.7895H59.8889V45.8421Z" fill="white"/>
</svg>
