<svg width="84" height="60" viewBox="0 0 84 60" fill="none" xmlns="http://www.w3.org/2000/svg">
<path d="M73.1043 6.5625L73.1 51.6037C74.2289 52.9307 75.3969 53.4409 76.3763 53.4375C77.3482 53.4342 78.5037 52.9179 79.6107 51.6307L76.5877 28.6254L76.5524 28.3452L76.7944 28.1218C80.2682 24.938 81.4821 19.4373 80.4912 14.7847C79.9957 12.4583 78.9585 10.3527 77.5061 8.86418C76.2881 7.6159 74.8351 6.81961 73.1046 6.5625H73.1043ZM12.0115 6.56297L12.0089 14.4294L9.94826 14.4275V6.56344H7.60135L7.60167 14.4279H5.5381V6.56344H3.14771V18.6605C3.14754 19.9984 4.16981 20.7403 5.77927 21.199L6.44536 21.3891L6.4306 21.9012C6.10247 31.8117 5.77812 41.7221 5.45245 51.6326C6.57464 52.9441 7.72735 53.4408 8.68711 53.4375C9.64688 53.4342 10.7986 52.9246 11.9065 51.6291C11.5267 41.7212 11.1469 31.8131 10.7678 21.9052L10.7481 21.3895L11.4163 21.2013C13.1101 20.7202 14.2118 19.9036 14.2118 18.6612V6.56297H12.0115ZM42 11.1328C34.9946 11.1328 28.276 13.1206 23.3224 16.6589C18.3688 20.1972 15.5859 24.9961 15.5859 30C15.5859 35.0039 18.3688 39.8028 23.3224 43.3411C28.276 46.8794 34.9946 48.8672 42 48.8672C49.0054 48.8672 55.724 46.8794 60.6776 43.3411C65.6312 39.8028 68.4141 35.0039 68.4141 30C68.4141 24.9961 65.6312 20.1972 60.6776 16.6589C55.724 13.1206 49.0054 11.1328 42 11.1328Z" fill="black"/>
</svg>
