<svg width="77" height="67" viewBox="0 0 77 67" fill="none" xmlns="http://www.w3.org/2000/svg">
<path d="M38.5 37.1191V3.71191C38.5 2.6602 38.9107 1.77801 39.732 1.06532C40.5505 0.355106 41.5657 0 42.7778 0H72.7222C73.9343 0 74.9495 0.355106 75.768 1.06532C76.5893 1.77801 77 2.6602 77 3.71191V22.2715C77 23.3232 76.5893 24.2041 75.768 24.9143C74.9495 25.627 73.9343 25.9834 72.7222 25.9834H51.3333L38.5 37.1191ZM72.5083 67C63.3111 67 54.3463 65.2208 45.6139 61.6623C36.8787 58.1063 29.1431 53.4045 22.407 47.557C15.6681 41.712 10.2496 34.9996 6.15145 27.4199C2.05048 19.8426 0 12.0637 0 4.0831C0 2.96953 0.427778 2.04155 1.28333 1.29917C2.13889 0.556786 3.20833 0.185595 4.49167 0.185595H21.8167C22.8148 0.185595 23.706 0.463988 24.4903 1.02078C25.2745 1.57756 25.738 2.28901 25.8806 3.15512L28.6611 16.1468C28.8037 17.0129 28.7866 17.8011 28.6098 18.5113C28.4301 19.224 28.0194 19.8587 27.3778 20.4155L17.1111 29.5097C20.1056 33.964 23.8486 38.1399 28.3403 42.0374C32.8319 45.9349 37.787 49.3066 43.2056 52.1524L53.2583 43.4294C53.9 42.8726 54.7384 42.4544 55.7737 42.1747C56.806 41.8976 57.8213 41.8209 58.8194 41.9446L73.5778 44.5429C74.5759 44.7285 75.3958 45.1455 76.0375 45.7938C76.6792 46.4447 77 47.2031 77 48.0693V63.1025C77 64.2161 76.5722 65.144 75.7167 65.8864C74.8611 66.6288 73.7917 67 72.5083 67Z" fill="white"/>
</svg>
